<?xml version="1.0" encoding="utf-8"?>
<!-- Generator: Adobe Illustrator 23.0.1, SVG Export Plug-In . SVG Version: 6.00 Build 0)  -->
<svg version="1.1" id="Layer_1" xmlns="http://www.w3.org/2000/svg" xmlns:xlink="http://www.w3.org/1999/xlink" x="0px" y="0px"
	 viewBox="0 0 1332 564.8" style="enable-background:new 0 0 1332 564.8;" xml:space="preserve">
<style type="text/css">
	.st0{fill:#B6E6BD;}
	.st1{fill:#4BAEA0;}
</style>
<title>Asset 4</title>
<path class="st0" d="M27,545c0,0,335-221,355-288c0,0,22,157,89,179c0,0,275-167,268-279l71,87c0,0,264-181,266-228
	c0,0,121,538,248,547S27,545,27,545z"/>
<path class="st1" d="M0,564.6c0,0,335-256.6,355-323.6c0,0,22,157,89,179c0,0,275-167,268-279l71,87c0,0,264-181,266-228
	c0,0,148,554,275,563S0,564.6,0,564.6z"/>
</svg>
